<svg width="200" height="48" viewBox="0 0 200 48" fill="none" xmlns="http://www.w3.org/2000/svg">
<rect width="200" height="48" rx="6" fill="#1A73E8"/>
<path d="M39.912 17.632H42.7867L47.808 30.9973H45.0267L43.9253 27.8053H38.7733L37.672 30.9973H34.8907L39.912 17.632ZM43.104 25.4907L41.9093 22.1493L41.424 20.5253H41.2747L40.7893 22.1493L39.5947 25.4907H43.104Z" fill="white"/>
<path d="M55.6139 29.896H55.4645C55.2405 30.2818 54.8921 30.6116 54.4192 30.8853C53.9463 31.1591 53.3614 31.296 52.6645 31.296C52.0796 31.296 51.5196 31.1778 50.9845 30.9413C50.4619 30.6924 49.9952 30.3564 49.5845 29.9333C49.1863 29.4978 48.869 28.9813 48.6325 28.384C48.3961 27.7867 48.2779 27.1333 48.2779 26.424C48.2779 25.7147 48.3961 25.0613 48.6325 24.464C48.869 23.8667 49.1863 23.3564 49.5845 22.9333C49.9952 22.4978 50.4619 22.1618 50.9845 21.9253C51.5196 21.6764 52.0796 21.552 52.6645 21.552C53.3614 21.552 53.9463 21.6889 54.4192 21.9627C54.8921 22.2364 55.2405 22.5662 55.4645 22.952H55.6139L55.4645 21.6453V17.632H57.9099V30.9973H55.6139V29.896ZM53.1685 29.0373C53.4921 29.0373 53.797 28.9813 54.0832 28.8693C54.3819 28.7449 54.6432 28.5707 54.8672 28.3467C55.0912 28.1227 55.2716 27.8489 55.4085 27.5253C55.5454 27.2018 55.6139 26.8347 55.6139 26.424C55.6139 26.0133 55.5454 25.6462 55.4085 25.3227C55.2716 24.9991 55.0912 24.7253 54.8672 24.5013C54.6432 24.2773 54.3819 24.1093 54.0832 23.9973C53.797 23.8729 53.4921 23.8107 53.1685 23.8107C52.845 23.8107 52.5339 23.8729 52.2352 23.9973C51.949 24.1218 51.6939 24.296 51.4699 24.52C51.2459 24.744 51.0654 25.0178 50.9285 25.3413C50.7916 25.6649 50.7232 26.0258 50.7232 26.424C50.7232 26.8222 50.7916 27.1831 50.9285 27.5067C51.0654 27.8302 51.2459 28.104 51.4699 28.328C51.6939 28.552 51.949 28.7262 52.2352 28.8507C52.5339 28.9751 52.845 29.0373 53.1685 29.0373Z" fill="white"/>
<path d="M66.7154 29.896H66.5661C66.3421 30.2818 65.9936 30.6116 65.5208 30.8853C65.0479 31.1591 64.463 31.296 63.7661 31.296C63.1812 31.296 62.6212 31.1778 62.0861 30.9413C61.5634 30.6924 61.0968 30.3564 60.6861 29.9333C60.2879 29.4978 59.9705 28.9813 59.7341 28.384C59.4976 27.7867 59.3794 27.1333 59.3794 26.424C59.3794 25.7147 59.4976 25.0613 59.7341 24.464C59.9705 23.8667 60.2879 23.3564 60.6861 22.9333C61.0968 22.4978 61.5634 22.1618 62.0861 21.9253C62.6212 21.6764 63.1812 21.552 63.7661 21.552C64.463 21.552 65.0479 21.6889 65.5208 21.9627C65.9936 22.2364 66.3421 22.5662 66.5661 22.952H66.7154L66.5661 21.6453V17.632H69.0114V30.9973H66.7154V29.896ZM64.2701 29.0373C64.5936 29.0373 64.8985 28.9813 65.1848 28.8693C65.4834 28.7449 65.7448 28.5707 65.9688 28.3467C66.1928 28.1227 66.3732 27.8489 66.5101 27.5253C66.647 27.2018 66.7154 26.8347 66.7154 26.424C66.7154 26.0133 66.647 25.6462 66.5101 25.3227C66.3732 24.9991 66.1928 24.7253 65.9688 24.5013C65.7448 24.2773 65.4834 24.1093 65.1848 23.9973C64.8985 23.8729 64.5936 23.8107 64.2701 23.8107C63.9465 23.8107 63.6354 23.8729 63.3368 23.9973C63.0505 24.1218 62.7954 24.296 62.5714 24.52C62.3474 24.744 62.167 25.0178 62.0301 25.3413C61.8932 25.6649 61.8248 26.0258 61.8248 26.424C61.8248 26.8222 61.8932 27.1831 62.0301 27.5067C62.167 27.8302 62.3474 28.104 62.5714 28.328C62.7954 28.552 63.0505 28.7262 63.3368 28.8507C63.6354 28.9751 63.9465 29.0373 64.2701 29.0373Z" fill="white"/>
<path d="M76.2044 23.9413H74.599V21.8507H76.2044V19.0507H78.6497V21.8507H80.8897V23.9413H78.6497V27.488C78.6497 27.6996 78.6684 27.8987 78.7057 28.0853C78.7555 28.2596 78.8426 28.4089 78.967 28.5333C79.1413 28.7324 79.3901 28.832 79.7137 28.832C79.9253 28.832 80.0933 28.8133 80.2177 28.776C80.3421 28.7262 80.4604 28.664 80.5724 28.5893L81.263 30.736C80.9768 30.8729 80.6657 30.9724 80.3297 31.0347C80.0061 31.1093 79.6453 31.1467 79.247 31.1467C78.7866 31.1467 78.3697 31.0782 77.9964 30.9413C77.6355 30.792 77.3306 30.5929 77.0817 30.344C76.4968 29.784 76.2044 28.9876 76.2044 27.9547V23.9413Z" fill="white"/>
<path d="M86.9281 21.552C87.6374 21.552 88.2845 21.6764 88.8694 21.9253C89.4667 22.1618 89.977 22.4978 90.4001 22.9333C90.8356 23.3564 91.1716 23.8667 91.4081 24.464C91.657 25.0613 91.7814 25.7147 91.7814 26.424C91.7814 27.1333 91.657 27.7867 91.4081 28.384C91.1716 28.9813 90.8356 29.4978 90.4001 29.9333C89.977 30.3564 89.4667 30.6924 88.8694 30.9413C88.2845 31.1778 87.6374 31.296 86.9281 31.296C86.2187 31.296 85.5654 31.1778 84.9681 30.9413C84.3832 30.6924 83.873 30.3564 83.4374 29.9333C83.0143 29.4978 82.6783 28.9813 82.4294 28.384C82.193 27.7867 82.0747 27.1333 82.0747 26.424C82.0747 25.7147 82.193 25.0613 82.4294 24.464C82.6783 23.8667 83.0143 23.3564 83.4374 22.9333C83.873 22.4978 84.3832 22.1618 84.9681 21.9253C85.5654 21.6764 86.2187 21.552 86.9281 21.552ZM86.9281 29.0373C87.2392 29.0373 87.5379 28.9813 87.8241 28.8693C88.1227 28.7449 88.3841 28.5707 88.6081 28.3467C88.8321 28.1227 89.0063 27.8489 89.1307 27.5253C89.2676 27.2018 89.3361 26.8347 89.3361 26.424C89.3361 26.0133 89.2676 25.6462 89.1307 25.3227C89.0063 24.9991 88.8321 24.7253 88.6081 24.5013C88.3841 24.2773 88.1227 24.1093 87.8241 23.9973C87.5379 23.8729 87.2392 23.8107 86.9281 23.8107C86.6045 23.8107 86.2996 23.8729 86.0134 23.9973C85.7272 24.1093 85.4721 24.2773 85.2481 24.5013C85.0241 24.7253 84.8436 24.9991 84.7067 25.3227C84.5823 25.6462 84.5201 26.0133 84.5201 26.424C84.5201 26.8347 84.5823 27.2018 84.7067 27.5253C84.8436 27.8489 85.0241 28.1227 85.2481 28.3467C85.4721 28.5707 85.7272 28.7449 86.0134 28.8693C86.2996 28.9813 86.6045 29.0373 86.9281 29.0373Z" fill="white"/>
<path d="M109.074 28.8507C108.414 29.6471 107.636 30.2569 106.74 30.68C105.844 31.0907 104.842 31.296 103.735 31.296C102.739 31.296 101.812 31.1156 100.954 30.7547C100.107 30.3938 99.3731 29.9022 98.7509 29.28C98.1287 28.6578 97.6372 27.9236 97.2763 27.0773C96.9154 26.2187 96.7349 25.2978 96.7349 24.3147C96.7349 23.3316 96.9154 22.4169 97.2763 21.5707C97.6372 20.712 98.1287 19.9716 98.7509 19.3493C99.3731 18.7271 100.107 18.2356 100.954 17.8747C101.812 17.5138 102.739 17.3333 103.735 17.3333C104.805 17.3333 105.745 17.52 106.554 17.8933C107.375 18.2667 108.103 18.808 108.738 19.5173L106.964 21.2347C106.566 20.7742 106.106 20.4071 105.583 20.1333C105.073 19.8596 104.463 19.7227 103.754 19.7227C103.131 19.7227 102.546 19.8347 101.999 20.0587C101.451 20.2702 100.972 20.5751 100.562 20.9733C100.163 21.3716 99.846 21.8569 99.6096 22.4293C99.3732 22.9893 99.2549 23.6178 99.2549 24.3147C99.2549 25.0116 99.3732 25.6462 99.6096 26.2187C99.846 26.7787 100.163 27.2578 100.562 27.656C100.972 28.0542 101.451 28.3653 101.999 28.5893C102.546 28.8009 103.131 28.9067 103.754 28.9067C104.5 28.9067 105.16 28.7573 105.732 28.4587C106.317 28.1476 106.834 27.712 107.282 27.152L109.074 28.8507Z" fill="white"/>
<path d="M110.616 17.632H113.061V21.384L112.912 23.0453H113.061C113.322 22.6098 113.696 22.2551 114.181 21.9813C114.679 21.6951 115.233 21.552 115.842 21.552C117.025 21.552 117.896 21.9004 118.456 22.5973C119.028 23.2942 119.314 24.2462 119.314 25.4533V30.9973H116.869V25.752C116.869 25.1173 116.72 24.6382 116.421 24.3147C116.122 23.9787 115.705 23.8107 115.17 23.8107C114.834 23.8107 114.536 23.8853 114.274 24.0347C114.013 24.1716 113.789 24.3644 113.602 24.6133C113.428 24.8622 113.291 25.1547 113.192 25.4907C113.105 25.8142 113.061 26.1627 113.061 26.536V30.9973H110.616V17.632Z" fill="white"/>
<path d="M121.334 21.8507H123.63V23.12H123.78C123.892 22.896 124.041 22.6907 124.228 22.504C124.414 22.3173 124.62 22.1556 124.844 22.0187C125.08 21.8818 125.329 21.776 125.59 21.7013C125.864 21.6267 126.132 21.5893 126.393 21.5893C126.717 21.5893 126.99 21.6204 127.214 21.6827C127.451 21.7449 127.65 21.8258 127.812 21.9253L127.158 24.1467C127.009 24.072 126.841 24.016 126.654 23.9787C126.48 23.9289 126.262 23.904 126.001 23.904C125.665 23.904 125.36 23.9724 125.086 24.1093C124.813 24.2338 124.576 24.4142 124.377 24.6507C124.19 24.8871 124.041 25.1671 123.929 25.4907C123.829 25.8018 123.78 26.144 123.78 26.5173V30.9973H121.334V21.8507Z" fill="white"/>
<path d="M132.702 21.552C133.411 21.552 134.058 21.6764 134.643 21.9253C135.24 22.1618 135.75 22.4978 136.174 22.9333C136.609 23.3564 136.945 23.8667 137.182 24.464C137.43 25.0613 137.555 25.7147 137.555 26.424C137.555 27.1333 137.43 27.7867 137.182 28.384C136.945 28.9813 136.609 29.4978 136.174 29.9333C135.75 30.3564 135.24 30.6924 134.643 30.9413C134.058 31.1778 133.411 31.296 132.702 31.296C131.992 31.296 131.339 31.1778 130.742 30.9413C130.157 30.6924 129.646 30.3564 129.211 29.9333C128.788 29.4978 128.452 28.9813 128.203 28.384C127.966 27.7867 127.848 27.1333 127.848 26.424C127.848 25.7147 127.966 25.0613 128.203 24.464C128.452 23.8667 128.788 23.3564 129.211 22.9333C129.646 22.4978 130.157 22.1618 130.742 21.9253C131.339 21.6764 131.992 21.552 132.702 21.552ZM132.702 29.0373C133.013 29.0373 133.311 28.9813 133.598 28.8693C133.896 28.7449 134.158 28.5707 134.382 28.3467C134.606 28.1227 134.78 27.8489 134.904 27.5253C135.041 27.2018 135.11 26.8347 135.11 26.424C135.11 26.0133 135.041 25.6462 134.904 25.3227C134.78 24.9991 134.606 24.7253 134.382 24.5013C134.158 24.2773 133.896 24.1093 133.598 23.9973C133.311 23.8729 133.013 23.8107 132.702 23.8107C132.378 23.8107 132.073 23.8729 131.787 23.9973C131.501 24.1093 131.246 24.2773 131.022 24.5013C130.798 24.7253 130.617 24.9991 130.48 25.3227C130.356 25.6462 130.294 26.0133 130.294 26.424C130.294 26.8347 130.356 27.2018 130.48 27.5253C130.617 27.8489 130.798 28.1227 131.022 28.3467C131.246 28.5707 131.501 28.7449 131.787 28.8693C132.073 28.9813 132.378 29.0373 132.702 29.0373Z" fill="white"/>
<path d="M138.944 21.8507H141.24V23.0453H141.389C141.675 22.5973 142.061 22.2364 142.546 21.9627C143.044 21.6889 143.592 21.552 144.189 21.552C144.886 21.552 145.471 21.7138 145.944 22.0373C146.417 22.3609 146.753 22.7591 146.952 23.232C147.238 22.7716 147.642 22.3796 148.165 22.056C148.688 21.72 149.322 21.552 150.069 21.552C150.629 21.552 151.114 21.6453 151.525 21.832C151.936 22.0062 152.272 22.2551 152.533 22.5787C152.807 22.9022 153.012 23.2942 153.149 23.7547C153.286 24.2027 153.354 24.6942 153.354 25.2293V30.9973H150.909V25.6773C150.909 24.4329 150.399 23.8107 149.378 23.8107C149.055 23.8107 148.769 23.8853 148.52 24.0347C148.271 24.1716 148.059 24.3644 147.885 24.6133C147.723 24.8498 147.593 25.136 147.493 25.472C147.406 25.808 147.362 26.1689 147.362 26.5547V30.9973H144.917V25.6773C144.917 24.4329 144.382 23.8107 143.312 23.8107C143.001 23.8107 142.727 23.8853 142.49 24.0347C142.254 24.1716 142.055 24.3644 141.893 24.6133C141.731 24.8498 141.607 25.136 141.52 25.472C141.433 25.808 141.389 26.1689 141.389 26.5547V30.9973H138.944V21.8507Z" fill="white"/>
<path d="M164.03 28.7947C163.606 29.5413 163.034 30.1449 162.312 30.6053C161.603 31.0658 160.732 31.296 159.699 31.296C159.002 31.296 158.355 31.1778 157.758 30.9413C157.173 30.6924 156.662 30.3502 156.227 29.9147C155.791 29.4791 155.449 28.9689 155.2 28.384C154.964 27.7867 154.846 27.1333 154.846 26.424C154.846 25.7644 154.964 25.1422 155.2 24.5573C155.437 23.96 155.766 23.4436 156.19 23.008C156.613 22.56 157.11 22.2053 157.683 21.944C158.268 21.6827 158.909 21.552 159.606 21.552C160.34 21.552 160.993 21.6764 161.566 21.9253C162.138 22.1618 162.617 22.4978 163.003 22.9333C163.389 23.3564 163.681 23.8604 163.88 24.4453C164.079 25.0302 164.179 25.6649 164.179 26.3493C164.179 26.4364 164.179 26.5111 164.179 26.5733C164.166 26.648 164.16 26.7164 164.16 26.7787C164.148 26.8409 164.142 26.9093 164.142 26.984H157.254C157.303 27.3573 157.403 27.6809 157.552 27.9547C157.714 28.216 157.907 28.44 158.131 28.6267C158.367 28.8009 158.622 28.9316 158.896 29.0187C159.17 29.0933 159.45 29.1307 159.736 29.1307C160.296 29.1307 160.757 29.0062 161.118 28.7573C161.491 28.496 161.783 28.1724 161.995 27.7867L164.03 28.7947ZM161.808 25.248C161.796 25.0862 161.74 24.9058 161.64 24.7067C161.553 24.5076 161.416 24.3209 161.23 24.1467C161.055 23.9724 160.831 23.8293 160.558 23.7173C160.296 23.6053 159.979 23.5493 159.606 23.5493C159.083 23.5493 158.622 23.6987 158.224 23.9973C157.826 24.296 157.546 24.7129 157.384 25.248H161.808Z" fill="white"/>
</svg>
