<svg width="64" height="48" viewBox="0 0 64 48" fill="none" xmlns="http://www.w3.org/2000/svg">
<path d="M51.6 16.1067C49.7867 6.90667 41.7067 0 32 0C28.0533 0 24.4 1.14667 21.3067 3.12L25.2 7.01333C27.2267 5.94667 29.5467 5.33333 32 5.33333C40.1067 5.33333 46.6667 11.8933 46.6667 20V21.3333H50.6667C55.0933 21.3333 58.6667 24.9067 58.6667 29.3333C58.6667 32.3467 56.96 34.96 54.5067 36.32L58.3733 40.1867C61.76 37.76 64 33.8133 64 29.3333C64 22.2933 58.5333 16.5867 51.6 16.1067ZM8 3.38667L15.3333 10.6933C6.82667 11.0667 0 18.0533 0 26.6667C0 35.4933 7.17333 42.6667 16 42.6667H47.28L52.6133 48L56 44.6133L11.3867 0L8 3.38667ZM20.6133 16L41.9467 37.3333H16C10.1067 37.3333 5.33333 32.56 5.33333 26.6667C5.33333 20.7733 10.1067 16 16 16H20.6133Z" fill="#1A73E8"/>
</svg>
